<?xml version="1.0" standalone="no"?>
<!DOCTYPE svg PUBLIC "-//W3C//DTD SVG 20010904//EN"
 "http://www.w3.org/TR/2001/REC-SVG-20010904/DTD/svg10.dtd">
<svg version="1.0" xmlns="http://www.w3.org/2000/svg"
 width="500.000000pt" height="500.000000pt" viewBox="0 0 500.000000 500.000000"
 preserveAspectRatio="xMidYMid meet">
<metadata>
Created by potrace 1.11, written by Peter Selinger 2001-2013
</metadata>
<g transform="translate(0.000000,500.000000) scale(0.100000,-0.100000)"
fill="#000000" stroke="none">
<path d="M2347 4844 c-1 -1 -38 -5 -82 -9 -213 -18 -416 -65 -617 -141 -86
-33 -299 -131 -308 -143 -3 -3 -18 -13 -34 -21 -62 -32 -229 -149 -324 -227
-474 -393 -782 -983 -828 -1588 -12 -158 -7 -423 10 -510 2 -11 6 -41 10 -66
43 -295 183 -654 358 -914 40 -60 81 -119 90 -130 9 -11 40 -49 68 -83 81 -99
239 -250 352 -339 365 -283 786 -447 1253 -488 74 -7 281 -7 351 -1 133 12
189 19 279 37 768 153 1387 656 1707 1387 22 52 105 298 112 334 2 13 12 59
21 103 18 86 19 88 30 185 4 36 9 79 11 95 5 34 5 325 0 370 -19 179 -37 280
-73 420 -48 183 -170 474 -247 588 -14 21 -26 40 -26 42 0 2 -22 37 -50 77
-264 389 -671 711 -1100 871 -98 36 -275 89 -345 103 -22 4 -42 8 -45 9 -19 5
-133 21 -230 31 -57 6 -337 13 -343 8z"/>
</g>
</svg>
