<?xml version="1.0" encoding="iso-8859-1"?>
<!-- Generator: Adobe Illustrator 19.0.0, SVG Export Plug-In . SVG Version: 6.00 Build 0)  -->
<svg width="80" height="80" version="1.1" id="Layer_1" xmlns="http://www.w3.org/2000/svg" xmlns:xlink="http://www.w3.org/1999/xlink" x="0px" y="0px"
	 viewBox="0 0 496 496" style="enable-background:new 0 0 496 496;" xml:space="preserve">
<path style="fill:#01a479;" d="M428.264,176c-6.024,5.664-12.832,10.512-20.264,14.32V208h-4c6.624,0,12,5.376,12,12
	s-5.376,12-12,12c6.624,0,12,5.376,12,12s-5.376,12-12,12h-72c-6.624,0-12-5.376-12-12s5.376-12,12-12c-6.624,0-12-5.376-12-12
	s5.376-12,12-12h-4v-17.68c-7.432-3.808-14.24-8.656-20.264-14.32H24v71.056l71.368,67.168L64,284.704V216h192v128H127l127.496,120
	H472c13.232,0,24-10.768,24-24V176H428.264z"/>
<g>
	<circle style="fill:#2f2f41;" cx="64" cy="152" r="8"/>
	<circle style="fill:#2f2f41;" cx="96" cy="152" r="8"/>
	<circle style="fill:#2f2f41;" cx="128" cy="152" r="8"/>
	<path style="fill:#2f2f41;" d="M147.176,352H264V208H56v58.192l-30.864-29.048c-7.784-7.328-14.4-5.616-16.88-4.56
		C5.768,233.648,0,237.296,0,248v224c0,13.232,10.768,24,24,24h240c10.472,0,14.088-5.176,15.312-8.272
		c1.224-3.088,2.152-9.344-5.48-16.52L147.176,352z M72,224h176v112H130.176L72,281.248V224z M24,480c-4.416,0-8-3.584-8-8v-8h16
		v-16H16v-16h16v-16H16v-16h16v-16H16v-16h16v-16H16v-16h16v-16H16v-16h16v-16H16v-37.48L259.832,480H24z"/>
	<path style="fill:#2f2f41;" d="M56,343.088V440h102.968L56,343.088z M72,380.12L118.624,424H72V380.12z"/>
	<path style="fill:#2f2f41;" d="M496,48V0h-48v16H288V0h-48v48h48V32h27.048C289.136,49.208,272,78.624,272,112H48
		c-13.232,0-24,10.768-24,24v56h8h283.416c1.536,1.008,2.976,2.136,4.584,3.064v9.04c-4.832,3.656-8,9.392-8,15.904
		c0,4.52,1.56,8.648,4.096,12C313.56,235.352,312,239.48,312,244c0,11.032,8.968,20,20,20h72c11.032,0,20-8.968,20-20
		c0-4.52-1.56-8.648-4.096-12c2.536-3.352,4.096-7.48,4.096-12c0-6.512-3.168-12.248-8-15.904v-9.04
		c1.608-0.928,3.048-2.056,4.584-3.064H488h8v-56c0-13.232-10.768-24-24-24h-8c0-33.376-17.136-62.792-43.048-80H448v16h48V48z
		 M256,32V16h16v16H256z M40,136c0-4.416,3.584-8,8-8h225.488c3.032,18.056,11.136,34.6,23.224,48H40V136z M368,128
		c-8.824,0-16-7.176-16-16s7.176-16,16-16s16,7.176,16,16S376.824,128,368,128z M404,216c2.2,0,4,1.8,4,4s-1.8,4-4,4h-72
		c-2.2,0-4-1.8-4-4s1.8-4,4-4H404z M404,248h-72c-2.2,0-4-1.8-4-4s1.8-4,4-4h72c2.2,0,4,1.8,4,4S406.2,248,404,248z M472,128
		c4.416,0,8,3.584,8,8v40h-40.712c12.088-13.4,20.184-29.944,23.224-48H472z M448,112c0,30.136-16.728,57.416-43.648,71.184
		l-4.352,2.24V200h-24v-57.136c13.768-3.576,24-15.992,24-30.864c0-17.648-14.352-32-32-32s-32,14.352-32,32
		c0,14.872,10.232,27.288,24,30.864V200h-24v-14.576l-4.352-2.232C304.728,169.416,288,142.136,288,112c0-44.112,35.888-80,80-80
		S448,67.888,448,112z M480,16v16h-16V16H480z"/>
	<rect x="280" y="288" style="fill:#fff;" width="184" height="16"/>
	<rect x="280" y="320" style="fill:#fff;" width="184" height="16"/>
	<rect x="280" y="352" style="fill:#fff;" width="184" height="16"/>
	<rect x="280" y="384" style="fill:#fff;" width="184" height="16"/>
</g>
<g>
</g>
<g>
</g>
<g>
</g>
<g>
</g>
<g>
</g>
<g>
</g>
<g>
</g>
<g>
</g>
<g>
</g>
<g>
</g>
<g>
</g>
<g>
</g>
<g>
</g>
<g>
</g>
<g>
</g>
</svg>
